<svg width="3905" height="3905" viewBox="0 0 3905 3905" fill="none" xmlns="http://www.w3.org/2000/svg">
<rect width="3905" height="3905" fill="white" fill-opacity="0.1"/>
<path d="M671.881 2396.19C676.977 2407.54 688.425 2415.83 702.112 2418.06L836.827 2439.94C841.891 2449.04 847.215 2458 852.557 2466.89L793.814 2575.24C787.767 2586.28 788.763 2599.27 796.316 2609.52C803.84 2619.84 816.815 2626.02 830.78 2625.83L967.934 2624.24C974.887 2632.17 981.956 2640.02 989.176 2647.73L955.525 2764.43C952.12 2776.27 955.916 2788.82 965.602 2797.66C975.236 2806.47 989.403 2810.31 1002.98 2807.77L1137.01 2782.66C1145.54 2789.27 1154.22 2795.79 1162.98 2802.18L1155.97 2922.51C1155.24 2934.69 1161.77 2946.4 1173.23 2953.38C1184.69 2960.41 1199.36 2961.72 1212.12 2956.91L1337.59 2909.4C1347.53 2914.43 1357.53 2919.43 1367.64 2924.26L1387.48 3043.35C1389.48 3055.41 1398.48 3065.8 1411.26 3070.71C1424 3075.64 1438.71 3074.4 1450.1 3067.48L1562.44 2999.41C1573.32 3002.68 1584.24 3005.82 1595.32 3008.83L1641.12 3122.27C1645.78 3133.83 1656.85 3142.47 1670.49 3145.1C1684.08 3147.71 1698.19 3143.99 1707.81 3135.28L1802.9 3048.97C1814.18 3050.28 1825.48 3051.5 1836.8 3052.54L1907.1 3156.35C1914.23 3166.85 1927.01 3173.42 1940.94 3173.68C1954.82 3173.95 1967.88 3167.88 1975.32 3157.64L2049.39 3056.58C2060.75 3055.98 2072.13 3055.19 2083.43 3054.31L2175.3 3144.18C2184.6 3153.26 2198.61 3157.51 2212.26 3155.42C2225.97 3153.29 2237.37 3145.1 2242.42 3133.73L2292.39 3022.11C2303.54 3019.52 2314.58 3016.77 2325.59 3013.95L2435.32 3086.24C2446.47 3093.62 2461.14 3095.41 2474.07 3090.95C2486.97 3086.53 2496.38 3076.49 2498.82 3064.51L2523.02 2946.27C2533.3 2941.82 2543.47 2937.24 2553.62 2932.56L2677.25 2984.81C2689.81 2990.13 2704.59 2989.36 2716.23 2982.77C2727.92 2976.23 2734.9 2964.77 2734.59 2952.58L2732.02 2832.06C2741 2826 2749.89 2819.82 2758.7 2813.55L2891.69 2843.74C2905.2 2846.77 2919.48 2843.5 2929.45 2835.07C2939.49 2826.6 2943.72 2814.2 2940.76 2802.24L2911.46 2684.34C2918.89 2676.88 2926.26 2669.33 2933.48 2661.68L3070.48 2668.49C3084.3 2669.1 3097.62 2663.53 3105.53 2653.5C3113.47 2643.54 3114.87 2630.61 3109.31 2619.34L3054.53 2508.83C3060.21 2500.15 3065.85 2491.39 3071.28 2482.5L3206.7 2465.76C3220.46 2464.08 3232.18 2456.23 3237.72 2445.05C3243.23 2433.84 3241.74 2420.92 3233.83 2410.85L3155.71 2311.86C3156.36 2310.16 3149.31 2208.47 3086.76 2125.58C3086.76 2125.58 3086.22 2125.36 3085.24 2124.97C2942.89 1924.23 2499.84 1771.7 1972.66 1761.66C1415.05 1751.04 945.663 1903.3 824.666 2116.72C770.659 2171.38 757.043 2261.33 758.671 2266.22L677.009 2362.17C668.675 2371.93 666.792 2384.78 671.881 2396.19Z" fill="#8F1F1D"/>
<path d="M3426.46 1966.6C3420.93 1950.76 3363.29 1954.8 3348.97 1952.01L3138.59 1953.89C3133.15 1941.22 3127.42 1928.75 3121.67 1916.37L3257.96 1705.82C3264.07 1690.11 3297.82 1668.09 3289.75 1653.85C3281.7 1639.53 3230.15 1658.67 3215.59 1659.32L2998.34 1697.95C2990.93 1686.99 2983.4 1676.12 2975.73 1665.46L3097.54 1393.98C3100.87 1377.2 3138.08 1309.05 3127.81 1296.87C3117.59 1284.72 3069.28 1325.75 3055.16 1329.69L2818.95 1479.47C2809.93 1470.41 2800.76 1461.45 2791.49 1452.68L2858.41 1217.54C2858.95 1200.37 2894.72 1119.01 2882.63 1109.49C2870.55 1099.9 2829.25 1136.56 2816.04 1143.68L2607.33 1306.44C2596.86 1299.62 2586.34 1292.85 2575.71 1286.31L2625.34 1008.27C2623.02 991.339 2643.31 902.689 2629.88 896.116C2616.51 889.515 2546.27 966.762 2534.54 976.813L2371.09 1185.75C2359.68 1181.44 2348.23 1177.31 2336.61 1173.36L2321.14 857.818C2316.06 841.668 2317.26 784.558 2302.98 781.224C2288.75 777.915 2270.47 828.869 2260.6 841.402L2119.34 1122.42C2107.54 1120.88 2095.74 1119.47 2083.91 1118.31L2012.39 794.917C2004.75 780.305 1996.65 732 1982.12 732C1967.64 732 1956.39 789.879 1948.82 804.488L1862.1 1118.33C1850.26 1119.48 1838.41 1120.89 1826.64 1122.44L1703.65 837.315C1693.77 824.779 1676.97 762.887 1662.79 766.192C1648.52 769.565 1651.19 815.695 1646.14 831.845L1609.31 1173.37C1597.73 1177.32 1586.27 1181.48 1574.83 1185.76L1463.01 1042.48C1451.23 1032.39 1385.61 933.265 1372.2 939.895C1358.83 946.465 1368.46 1050.16 1366.14 1067.09L1370.21 1286.32C1359.58 1292.86 1349.06 1299.58 1338.56 1306.45L1134.59 1116.33C1121.39 1109.18 1093.63 1079.39 1081.62 1088.98C1069.54 1098.5 1079.56 1141.57 1080.1 1158.73L1154.4 1452.69C1145.15 1461.46 1136 1470.41 1126.94 1479.47L903.028 1340.64C888.878 1336.73 845.166 1302.51 834.923 1314.66C824.615 1326.84 848.26 1339.67 851.569 1356.45L970.065 1665.47C962.454 1676.17 954.917 1686.99 947.534 1697.96L582.377 1574.52C567.944 1574.04 528.192 1554.73 520.126 1569.05C512.048 1583.3 545.895 1603.95 551.91 1619.66L824.205 1916.38C818.446 1928.75 812.729 1941.23 807.229 1953.9L542.829 1921.93C528.512 1924.68 490.886 1916.99 485.316 1932.87C479.781 1948.8 516.219 1969.43 524.668 1983.4L722.426 2196.37C721.782 2198.79 731.081 2341.76 797.899 2456.77C797.899 2456.77 798.466 2457.06 799.497 2457.59C951.814 2736.37 1416.83 2939.21 1966.87 2939.21C2548.66 2939.21 3035.33 2712.28 3157.45 2408.59C3212.74 2330.2 3225.22 2203.2 3223.43 2196.37L3384.08 2023.14C3392.59 2009.17 3431.99 1982.53 3426.46 1966.6Z" fill="#8F1F1D"/>
<path d="M829.874 2199.01C829.874 2199.01 526.352 2242.57 458.058 2257.66C389.766 2272.75 435.332 2284.24 458.058 2287.84C537.355 2300.41 928.518 2310.47 936.109 2312.99C943.697 2315.5 829.874 2199.01 829.874 2199.01Z" fill="#8F1F1D"/>
<path d="M3074.23 2220.19C3074.23 2220.19 3377.75 2263.76 3446.04 2278.85C3514.33 2293.94 3468.77 2305.42 3446.04 2309.02C3366.74 2321.6 2975.58 2331.66 2967.99 2334.18C2960.4 2336.69 3074.23 2220.19 3074.23 2220.19Z" fill="#8F1F1D"/>
<path d="M1549.72 2028.15C1549.72 2028.15 1418.24 1884.2 1286.78 2028.15C1286.78 2028.15 1183.47 2220.1 1286.78 2316.06C1286.78 2316.06 1455.81 2450.42 1549.72 2316.06C1549.72 2316.06 1662.41 2210.49 1549.72 2028.15Z" fill="black"/>
<path d="M1292 2097.54C1292 2153.6 1325.04 2199.04 1365.79 2199.04C1406.53 2199.04 1439.58 2153.6 1439.58 2097.54C1439.58 2041.49 1406.53 1996.04 1365.79 1996.04C1325.04 1996.04 1292 2041.49 1292 2097.54Z" fill="white"/>
<path d="M2286.29 1975.3C2286.29 1975.3 2060.77 1875.45 1999.22 2098.32C1999.22 2098.32 1934.75 2358.09 2184.42 2372.75C2184.42 2372.75 2502.79 2311.43 2286.29 1975.3Z" fill="black"/>
<path d="M2067.51 2087.68C2067.51 2145.49 2101.58 2192.37 2143.62 2192.37C2185.63 2192.37 2219.71 2145.49 2219.71 2087.68C2219.71 2029.87 2185.63 1983 2143.62 1983C2101.59 1983 2067.51 2029.87 2067.51 2087.68Z" fill="white"/>
<path d="M2598.22 514.075C2555.66 471.508 2486.64 471.508 2444.07 514.075C2401.51 556.642 2401.51 625.657 2444.07 668.224" stroke="url(#paint0_linear_1_15)" stroke-width="30" stroke-linecap="round"/>
<path d="M2630.95 400.5C2547.98 317.534 2413.47 317.534 2330.5 400.5C2247.53 483.466 2247.53 617.981 2330.5 700.948" stroke="url(#paint1_linear_1_15)" stroke-width="30" stroke-linecap="round"/>
<path d="M2774.02 299.672C2622.32 147.975 2376.37 147.975 2224.67 299.672C2072.97 451.369 2072.97 697.318 2224.67 849.015" stroke="url(#paint2_linear_1_15)" stroke-width="30" stroke-linecap="round"/>
<path d="M2577 556.5C2613.97 556.5 2644.14 586.091 2644.86 623.055L2667.43 1787.5H2486.57L2509.14 623.055C2509.86 586.091 2540.03 556.5 2577 556.5Z" fill="#8F1F1D" stroke="url(#paint3_linear_1_15)" stroke-width="7"/>
<defs>
<linearGradient id="paint0_linear_1_15" x1="2444.07" y1="514.075" x2="2521.15" y2="591.149" gradientUnits="userSpaceOnUse">
<stop stop-color="#8F1F1D"/>
<stop offset="1" stop-opacity="0"/>
</linearGradient>
<linearGradient id="paint1_linear_1_15" x1="2330.5" y1="400.5" x2="2480.72" y2="550.724" gradientUnits="userSpaceOnUse">
<stop stop-color="#8F1F1D"/>
<stop offset="1" stop-opacity="0"/>
</linearGradient>
<linearGradient id="paint2_linear_1_15" x1="2224.67" y1="299.672" x2="2499.34" y2="574.344" gradientUnits="userSpaceOnUse">
<stop stop-color="#8F1F1D"/>
<stop offset="1" stop-opacity="0"/>
</linearGradient>
<linearGradient id="paint3_linear_1_15" x1="2577" y1="553" x2="2577" y2="1791" gradientUnits="userSpaceOnUse">
<stop stop-opacity="0.68"/>
<stop offset="1" stop-color="#8F1F1D"/>
</linearGradient>
</defs>
</svg>
